<?xml version="1.0" encoding="UTF-8"?>
<svg id="_圖層_2" data-name="圖層 2" xmlns="http://www.w3.org/2000/svg" viewBox="0 0 192.38 143.66">
  <defs>
    <style>
      .cls-1, .cls-2, .cls-3 {
        stroke-miterlimit: 10;
      }

      .cls-1, .cls-2, .cls-3, .cls-4, .cls-5 {
        fill: none;
      }

      .cls-1, .cls-3, .cls-4, .cls-5 {
        stroke-width: 3px;
      }

      .cls-1, .cls-5 {
        stroke: #9f9f9f;
      }

      .cls-6 {
        fill: #fff;
      }

      .cls-2 {
        stroke: #c6fd30;
      }

      .cls-2, .cls-7, .cls-4, .cls-5 {
        stroke-linecap: round;
      }

      .cls-8 {
        fill: #9f9f9f;
      }

      .cls-7, .cls-3, .cls-4 {
        stroke: #000;
      }

      .cls-7, .cls-4, .cls-5 {
        stroke-linejoin: round;
      }

      .cls-7, .cls-9 {
        fill: #c6fd30;
      }

      .cls-10 {
        fill: #8af2f1;
      }
    </style>
  </defs>
  <g id="_圖_文" data-name="圖、文">
    <g>
      <polygon points="0 41.38 0 107.26 98.61 143.66 190.02 109.66 99.61 77.02 99.79 7.66 0 41.38"/>
      <g>
        <g>
          <path class="cls-6" d="m191.05,100.69c-.06,0-.12,0-.17-.03l-91.38-33.18c-.2-.07-.33-.26-.33-.47l-.32-66.01c0-.16.08-.32.21-.41.09-.06.19-.09.29-.09.06,0,.11,0,.17.03l92.03,32.94c.2.07.33.26.33.47l-.33,66.24c0,.16-.08.31-.21.41-.09.06-.19.09-.29.09Z"/>
          <path d="m99.35,1l92.03,32.94-.33,66.24-91.39-33.18-.32-66.01m0-1c-.2,0-.41.06-.58.18-.27.19-.42.49-.42.82l.32,66.01c0,.42.27.79.66.94l91.39,33.18c.11.04.23.06.34.06.2,0,.4-.06.57-.18.27-.19.43-.49.43-.82l.33-66.24c0-.42-.26-.8-.66-.95L99.68.06c-.11-.04-.22-.06-.34-.06h0Z"/>
        </g>
        <g>
          <polyline class="cls-7" points="99.35 118.92 99.35 118.96 99.35 118.96"/>
          <g>
            <path class="cls-9" d="m99.35,133.74c-.06,0-.12,0-.17-.03L8.33,100.84c-.2-.07-.33-.26-.33-.47s.13-.4.33-.47l90.85-32.64c.05-.02.11-.03.17-.03s.11,0,.17.03l90.85,32.63c.2.07.33.26.33.47,0,.21-.13.4-.33.47l-90.85,32.87c-.05.02-.11.03-.17.03Z"/>
            <path d="m99.35,67.74l90.85,32.63-90.85,32.87L8.5,100.37l90.85-32.64m0-1c-.11,0-.23.02-.34.06L8.16,99.43c-.4.14-.66.52-.66.94,0,.42.26.8.66.94l90.85,32.87c.11.04.23.06.34.06s.23-.02.34-.06l90.85-32.87c.4-.14.66-.52.66-.94s-.27-.8-.66-.94l-90.85-32.63c-.11-.04-.22-.06-.34-.06h0Z"/>
          </g>
        </g>
        <g>
          <path class="cls-10" d="m7.64,100.69c-.1,0-.2-.03-.29-.09-.13-.09-.21-.25-.21-.41l-.33-66.24c0-.21.13-.4.33-.47L99.18.53c.05-.02.11-.03.17-.03.1,0,.2.03.29.09.13.09.21.25.21.41l-.32,66.01c0,.21-.13.4-.33.47L7.81,100.65c-.06.02-.11.03-.17.03Z"/>
          <path d="m99.35,1l-.32,66.01L7.64,100.18l-.33-66.24L99.35,1m0-1c-.11,0-.23.02-.34.06L6.98,33c-.4.14-.67.52-.66.95l.33,66.24c0,.33.16.63.43.82.17.12.37.18.57.18.11,0,.23-.02.34-.06l91.39-33.18c.39-.14.66-.52.66-.94l.32-66.01c0-.33-.16-.63-.42-.82-.17-.12-.37-.18-.58-.18h0Zm0,2h0,0Z"/>
        </g>
      </g>
      <g>
        <line class="cls-4" x1="46.38" y1="71.08" x2="46.38" y2="93.14"/>
        <rect class="cls-6" x="37.79" y="90.8" width="9.92" height="7.77" rx="3.88" ry="3.88" transform="translate(-41.62 34.06) rotate(-30)"/>
      </g>
      <g>
        <line class="cls-4" x1="33.65" y1="44.44" x2="33.65" y2="66.5"/>
        <rect class="cls-6" x="25.57" y="65.1" width="9.92" height="7.77" rx="3.88" ry="3.88" transform="translate(-30.4 24.51) rotate(-30)"/>
      </g>
      <g>
        <line class="cls-4" x1="55.07" y1="4.85" x2="51.72" y2="26.66"/>
        <rect class="cls-8" x="42.95" y="23.75" width="9.92" height="7.77" rx="3.88" ry="3.88" transform="translate(-6.76 19.27) rotate(-21.28)"/>
        <line class="cls-4" x1="70.98" y1="4.38" x2="67.64" y2="26.19"/>
        <rect class="cls-8" x="59.21" y="24.29" width="9.92" height="7.77" rx="3.88" ry="3.88" transform="translate(-5.85 25.2) rotate(-21.28)"/>
        <line class="cls-3" x1="55.07" y1="4.85" x2="70.98" y2="4.38"/>
      </g>
      <g>
        <path class="cls-2" d="m82.35,54.67c22.97,0,22.97,2,45.95,2,22.97,0,22.97-2,45.95-2"/>
        <path class="cls-2" d="m82.35,58.84c22.97,0,22.97,2,45.95,2s22.97-2,45.95-2"/>
        <path class="cls-2" d="m82.35,62.88c22.97,0,22.97,2,45.95,2s22.97-2,45.95-2"/>
        <path class="cls-2" d="m82.35,50.5c22.97,0,22.97,2,45.95,2s22.97-2,45.95-2"/>
        <path class="cls-2" d="m82.35,46.06c22.97,0,22.97,2,45.95,2,22.97,0,22.97-2,45.95-2"/>
      </g>
      <g>
        <line class="cls-5" x1="154.68" y1="41.91" x2="151.33" y2="63.72"/>
        <rect x="142.56" y="60.81" width="9.92" height="7.77" rx="3.88" ry="3.88" transform="translate(-13.42 57.94) rotate(-21.28)"/>
        <line class="cls-5" x1="170.59" y1="41.44" x2="167.25" y2="63.25"/>
        <rect x="158.82" y="61.35" width="9.92" height="7.77" rx="3.88" ry="3.88" transform="translate(-12.51 63.87) rotate(-21.28)"/>
        <line class="cls-1" x1="154.68" y1="41.91" x2="170.59" y2="41.44"/>
      </g>
      <path class="cls-6" d="m85.52,85.74c0,.95,1.65,8.31,1.83,8.14-.17.17,7.19,1.83,8.14,1.83-.95,0-8.31,1.65-8.14,1.83-.17-.17-1.83,7.19-1.83,8.14,0-.95-1.65-8.31-1.83-8.14.17-.17-7.19-1.83-8.14-1.83.95,0,8.31-1.65,8.14-1.83.17.17,1.83-7.19,1.83-8.14Z"/>
      <path class="cls-6" d="m72.72,100.35c0,.95,1.65,8.31,1.83,8.14-.17.17,7.19,1.83,8.14,1.83-.95,0-8.31,1.65-8.14,1.83-.17-.17-1.83,7.19-1.83,8.14,0-.95-1.65-8.31-1.83-8.14.17-.17-7.19-1.83-8.14-1.83.95,0,8.31-1.65,8.14-1.83.17.17,1.83-7.19,1.83-8.14Z"/>
    </g>
  </g>
</svg>