<svg width="649" height="677" viewBox="0 0 649 677" fill="none" xmlns="http://www.w3.org/2000/svg">
<path d="M629.973 442.467L629.968 442.484L629.962 442.502C629.061 445.428 626.631 448.032 622.631 450.555C618.643 453.07 613.605 455.194 608.17 457.405C607.737 457.581 607.302 457.757 606.865 457.934C601.938 459.933 596.763 462.032 592.348 464.505C587.575 467.178 583.124 470.584 580.831 475.372C578.558 480.119 578.567 485.864 579.31 491.469C580.001 496.692 581.418 502.343 582.772 507.743C582.887 508.201 583.001 508.657 583.114 509.11C584.596 515.041 585.922 520.603 586.332 525.479C586.745 530.385 586.161 533.917 584.521 536.263C582.727 538.628 579.576 540.256 574.952 541.322C570.333 542.387 564.849 542.762 558.99 543.094C558.537 543.12 558.081 543.145 557.623 543.17C552.305 543.467 546.737 543.777 541.803 544.671C536.499 545.632 531.243 547.372 527.657 551.116C524.097 554.832 522.452 560.255 521.532 565.729C520.694 570.711 520.376 576.322 520.07 581.716C520.035 582.328 520 582.937 519.965 583.541C519.613 589.612 519.202 595.303 518.105 600.064C516.996 604.876 515.327 608.079 512.972 609.821L512.943 609.843L512.914 609.864C510.739 611.543 507.457 612.156 502.789 611.728C498.16 611.304 492.866 609.929 487.179 608.381C486.744 608.262 486.306 608.142 485.866 608.022C480.699 606.61 475.263 605.125 470.235 604.399C464.836 603.619 459.228 603.599 454.586 606.022L454.561 606.035L454.536 606.049C450.056 608.481 446.886 613.141 444.39 618.053C442.123 622.513 440.152 627.73 438.256 632.75C438.033 633.339 437.812 633.925 437.591 634.507C435.442 640.172 433.348 645.458 430.885 649.644C428.394 653.878 425.865 656.386 423.146 657.298L423.128 657.304L423.11 657.311C420.609 658.181 417.342 657.708 413.017 655.761C408.744 653.837 404.12 650.793 399.169 647.47C398.884 647.279 398.599 647.088 398.312 646.895C393.729 643.816 388.892 640.566 384.209 638.23C379.305 635.784 373.954 634.012 368.768 634.927C363.706 635.701 359.263 639.089 355.43 642.931C351.849 646.52 348.348 650.985 344.998 655.256C344.696 655.641 344.395 656.025 344.096 656.406C340.39 661.122 336.87 665.495 333.332 668.702C329.75 671.949 326.687 673.5 323.94 673.5C321.192 673.5 318.129 671.949 314.547 668.702C311.01 665.495 307.489 661.122 303.783 656.406C303.484 656.025 303.183 655.641 302.881 655.256C299.532 650.985 296.03 646.52 292.449 642.931C288.603 639.076 284.143 635.678 279.059 634.919C274.008 634.166 268.764 636.028 263.954 638.506C259.435 640.834 254.738 644.014 250.258 647.047C249.901 647.289 249.545 647.53 249.191 647.769C244.283 651.088 239.666 654.138 235.391 656.101C231.078 658.081 227.778 658.635 225.252 657.87C222.562 656.95 220.082 654.46 217.646 650.251C215.225 646.066 213.183 640.783 211.066 635.109C210.897 634.659 210.729 634.205 210.559 633.75C208.644 628.603 206.639 623.218 204.279 618.624C201.742 613.685 198.489 609.027 193.854 606.607C189.212 604.184 183.604 604.204 178.204 604.984C173.176 605.71 167.74 607.195 162.573 608.607C162.134 608.727 161.696 608.847 161.26 608.966C155.573 610.515 150.279 611.889 145.651 612.313C141.01 612.739 137.739 612.135 135.564 610.479C133.297 608.605 131.708 605.268 130.672 600.373C129.644 595.51 129.283 589.748 128.966 583.636C128.941 583.164 128.917 582.689 128.893 582.213C128.608 576.654 128.312 570.868 127.461 565.744C126.549 560.257 124.904 554.833 121.343 551.116C117.758 547.374 112.503 545.633 107.213 544.663C102.414 543.784 97.0142 543.45 91.8519 543.131C91.2655 543.095 90.6821 543.059 90.103 543.022C84.2852 542.654 78.8702 542.226 74.3503 541.091C69.8141 539.952 66.7813 538.242 65.1062 535.773L65.0866 535.744L65.0665 535.716C63.4049 533.369 62.8126 529.825 63.2198 524.888C63.6223 520.007 64.9323 514.445 66.3808 508.506C66.4599 508.182 66.5394 507.856 66.6192 507.53C67.9691 502.005 69.388 496.198 70.0205 490.834C70.6829 485.216 70.5728 479.462 68.1341 474.717C65.8242 470.097 61.3748 466.783 56.633 464.165C52.2432 461.742 47.099 459.655 42.1878 457.663C41.7331 457.479 41.2804 457.295 40.8304 457.112C35.3968 454.902 30.3485 452.775 26.3511 450.288C22.325 447.783 19.9124 445.241 19.0268 442.467C18.1439 439.702 18.6494 436.16 20.5212 431.629C22.3746 427.143 25.3012 422.298 28.4808 417.134C28.6629 416.838 28.8458 416.541 29.0294 416.244C31.9815 411.454 35.0872 406.415 37.3174 401.542C39.659 396.425 41.3061 390.938 40.4507 385.666C39.7288 380.506 36.5416 375.913 32.8407 371.888C29.4021 368.149 25.1227 364.49 21.0311 360.993C20.6625 360.678 20.2956 360.364 19.9308 360.052C15.4153 356.184 11.2288 352.51 8.15528 348.815C5.06179 345.096 3.5 341.824 3.5 338.793C3.5 335.761 5.0618 332.49 8.15528 328.77C11.2288 325.075 15.4153 321.401 19.9308 317.534C20.2958 317.221 20.663 316.907 21.0318 316.592C25.1232 313.094 29.4023 309.436 32.8406 305.697C36.5416 301.672 39.7289 297.079 40.4507 291.919C41.306 286.647 39.659 281.16 37.3174 276.043C35.0872 271.17 31.9816 266.131 29.0295 261.342C28.8459 261.044 28.6629 260.747 28.4808 260.451C25.3012 255.287 22.3746 250.443 20.5212 245.956C18.6494 241.425 18.1439 237.883 19.0268 235.118L19.0323 235.101L19.0376 235.083C19.9386 232.157 22.3693 229.553 26.3692 227.03C30.3571 224.515 35.3948 222.392 40.8304 220.18C41.2627 220.005 41.6977 219.828 42.1346 219.651C47.0617 217.652 52.2366 215.553 56.6517 213.08C61.4095 210.416 65.8467 207.023 68.1463 202.259C70.5721 197.521 70.6825 191.815 70.0201 186.244C69.3906 180.951 67.9826 175.226 66.6399 169.767C66.5528 169.413 66.4659 169.06 66.3796 168.708C64.9319 162.81 63.6224 157.266 63.2199 152.361C62.8156 147.434 63.3902 143.778 65.0864 141.256C66.7394 138.942 69.7498 137.325 74.3021 136.25C78.8422 135.178 84.2686 134.786 90.103 134.417C90.4288 134.396 90.7558 134.376 91.0839 134.355C96.4931 134.015 102.202 133.657 107.26 132.657C112.568 131.608 117.806 129.742 121.372 125.854C124.912 122.138 126.55 116.73 127.468 111.271C128.306 106.289 128.624 100.678 128.93 95.2833C128.965 94.6719 129 94.0632 129.035 93.4586C129.387 87.3883 129.798 81.6968 130.895 76.9356C132.002 72.1325 133.667 68.9316 136.016 67.1878C138.176 65.6265 141.464 65.0961 146.151 65.5959C150.793 66.0907 156.082 67.5046 161.745 69.0568C161.971 69.1188 162.198 69.1809 162.425 69.2432C167.755 70.7053 173.389 72.2508 178.569 72.9361C183.883 73.6391 189.412 73.5463 193.928 70.9392C198.524 68.5086 201.755 63.8733 204.279 58.9609C206.639 54.3675 208.644 48.9824 210.559 43.8351C210.729 43.3799 210.897 42.9265 211.066 42.4756C213.183 36.8017 215.225 31.5191 217.646 27.3342C220.094 23.1041 222.587 20.6099 225.293 19.7019L225.312 19.6957L225.33 19.6893C227.831 18.819 231.098 19.2917 235.423 21.2391C239.696 23.1632 244.32 26.2066 249.271 29.5297C249.556 29.7208 249.841 29.9128 250.128 30.1056C254.711 33.1847 259.548 36.4345 264.231 38.7703C269.134 41.2164 274.486 42.9883 279.672 42.0726C284.734 41.299 289.177 37.9106 293.009 34.0693C296.59 30.48 300.092 26.0145 303.442 21.7431C303.744 21.3582 304.044 20.975 304.344 20.5941C308.05 15.8775 311.57 11.5054 315.108 8.29805C318.689 5.05075 321.753 3.5 324.5 3.5C327.247 3.5 330.311 5.05075 333.892 8.29805C337.43 11.5054 340.95 15.8775 344.656 20.5941C344.956 20.9751 345.256 21.3585 345.558 21.7435C348.908 26.0148 352.41 30.4801 355.991 34.0693C359.823 37.9106 364.266 41.299 369.328 42.0727C374.514 42.9883 379.866 41.2164 384.769 38.7703C389.452 36.4345 394.289 33.1847 398.872 30.1056C399.159 29.9129 399.444 29.7208 399.729 29.5297C404.68 26.2066 409.304 23.1632 413.577 21.2391C417.902 19.2917 421.169 18.819 423.67 19.6893L423.688 19.6957L423.707 19.7019C426.413 20.6099 428.906 23.1041 431.354 27.3342C433.775 31.5191 435.817 36.8017 437.934 42.4756C438.103 42.9263 438.271 43.3795 438.441 43.8346C440.356 48.9819 442.361 54.3673 444.721 58.9609C447.245 63.8733 450.476 68.5086 455.072 70.9392C459.587 73.5458 465.115 73.639 470.424 72.9461C475.484 72.2857 480.985 70.811 486.201 69.4122C486.547 69.3196 486.891 69.2272 487.234 69.1355C492.892 67.6219 498.169 66.2647 502.792 65.8484C507.454 65.4284 510.738 66.0412 512.914 67.7208C515.142 69.4394 516.73 72.6319 517.779 77.476C518.815 82.2561 519.192 87.9583 519.545 94.0437C519.565 94.3815 519.584 94.7204 519.604 95.0604C519.93 100.716 520.272 106.648 521.224 111.901C522.219 117.389 523.983 122.798 527.688 126.501C531.271 130.222 536.512 131.955 541.787 132.922C546.586 133.801 551.986 134.135 557.149 134.454C557.735 134.49 558.318 134.526 558.897 134.563C564.715 134.931 570.13 135.359 574.65 136.494C579.186 137.634 582.219 139.343 583.894 141.812L583.913 141.841L583.934 141.869C585.595 144.216 586.187 147.759 585.772 152.692C585.362 157.567 584.036 163.129 582.554 169.06C582.441 169.513 582.326 169.969 582.212 170.426C580.858 175.827 579.441 181.478 578.749 186.701C578.007 192.306 577.998 198.051 580.271 202.798L580.283 202.822L580.295 202.846C582.614 207.503 587.133 210.787 591.932 213.358C596.283 215.69 601.377 217.692 606.256 219.611C606.815 219.831 607.371 220.049 607.923 220.267C613.421 222.438 618.528 224.546 622.564 227.052C626.618 229.57 629.066 232.173 629.962 235.083L629.968 235.101L629.973 235.118C630.856 237.883 630.351 241.425 628.479 245.956C626.625 250.443 623.699 255.287 620.519 260.451C620.337 260.747 620.154 261.044 619.97 261.342C617.018 266.132 613.913 271.17 611.683 276.043C609.341 281.16 607.694 286.647 608.549 291.919C609.271 297.079 612.458 301.672 616.159 305.697C619.598 309.436 623.877 313.094 627.968 316.592C628.337 316.907 628.704 317.221 629.069 317.534C633.585 321.401 637.771 325.075 640.845 328.77C643.938 332.49 645.5 335.761 645.5 338.793C645.5 341.824 643.938 345.096 640.845 348.815C637.771 352.51 633.585 356.184 629.069 360.052C628.704 360.364 628.338 360.678 627.969 360.993C623.877 364.49 619.598 368.149 616.159 371.888C612.458 375.913 609.271 380.506 608.549 385.666C607.694 390.939 609.341 396.425 611.683 401.542C613.913 406.415 617.018 411.454 619.97 416.243C620.154 416.541 620.337 416.838 620.519 417.134C623.699 422.298 626.625 427.143 628.479 431.629C630.351 436.16 630.856 439.702 629.973 442.467Z" fill="white" stroke="black" stroke-width="7"/>
</svg>
