<svg width="566" height="135" viewBox="0 0 566 135" fill="none" xmlns="http://www.w3.org/2000/svg">
<path d="M91.5 66.8996C91.5 66.99 91.4979 67.0782 91.4959 67.1663C91.4979 67.1663 91.4979 67.1663 91.5 67.1663C108.345 67.1663 122 82.1419 122 100.616C122 119.09 108.345 134.066 91.5 134.066C74.6549 134.066 61 119.09 61 100.616C61 100.526 61.002 100.438 61.0041 100.349C61.002 100.349 61.002 100.349 61 100.349C60.9979 100.349 60.9979 100.349 60.9959 100.349C60.9959 100.44 61 100.528 61 100.616C61 119.09 47.3451 134.066 30.5 134.066C13.6549 134.066 0 119.09 0 100.616C0 82.1419 13.6549 67.1663 30.5 67.1663C30.5021 67.1663 30.5021 67.1663 30.5041 67.1663C30.5041 67.0759 30.5 66.9878 30.5 66.8996C13.6549 66.8996 0 51.9241 0 33.4498C0 14.9756 13.6549 1.15977e-05 30.5 1.15977e-05C47.3451 1.15977e-05 61 14.9756 61 33.4498C61 14.9756 74.6549 1.15977e-05 91.5 1.15977e-05C108.345 1.15977e-05 122 14.9756 122 33.4498C122 51.9218 108.345 66.8996 91.5 66.8996Z" fill="white"/>
<path d="M535.076 66.8996C535.076 66.99 535.074 67.0782 535.072 67.1663C535.074 67.1663 535.074 67.1663 535.076 67.1663C551.921 67.1663 565.576 82.1419 565.576 100.616C565.576 119.09 551.921 134.066 535.076 134.066C518.231 134.066 504.576 119.09 504.576 100.616C504.576 100.526 504.578 100.438 504.58 100.349C504.578 100.349 504.578 100.349 504.576 100.349C504.574 100.349 504.574 100.349 504.572 100.349C504.572 100.44 504.576 100.528 504.576 100.616C504.576 119.09 490.921 134.066 474.076 134.066C457.231 134.066 443.576 119.09 443.576 100.616C443.576 82.1419 457.231 67.1663 474.076 67.1663C474.078 67.1663 474.078 67.1663 474.08 67.1663C474.08 67.0759 474.076 66.9878 474.076 66.8996C457.231 66.8996 443.576 51.9241 443.576 33.4498C443.576 14.9756 457.231 1.15977e-05 474.076 1.15977e-05C490.921 1.15977e-05 504.576 14.9756 504.576 33.4498C504.576 14.9756 518.231 1.15977e-05 535.076 1.15977e-05C551.921 1.15977e-05 565.576 14.9756 565.576 33.4498C565.576 51.9218 551.921 66.8996 535.076 66.8996Z" fill="white"/>
<path d="M239.359 66.8996C239.359 66.99 239.357 67.0782 239.355 67.1663C239.357 67.1663 239.357 67.1663 239.359 67.1663C256.204 67.1663 269.859 82.1419 269.859 100.616C269.859 119.09 256.204 134.066 239.359 134.066C222.514 134.066 208.859 119.09 208.859 100.616C208.859 100.526 208.861 100.438 208.863 100.349C208.861 100.349 208.861 100.349 208.859 100.349C208.857 100.349 208.857 100.349 208.855 100.349C208.855 100.44 208.859 100.528 208.859 100.616C208.859 119.09 195.204 134.066 178.359 134.066C161.514 134.066 147.859 119.09 147.859 100.616C147.859 82.1419 161.514 67.1663 178.359 67.1663C178.361 67.1663 178.361 67.1663 178.363 67.1663C178.363 67.0759 178.359 66.9878 178.359 66.8996C161.514 66.8996 147.859 51.9241 147.859 33.4498C147.859 14.9756 161.514 1.15977e-05 178.359 1.15977e-05C195.204 1.15977e-05 208.859 14.9756 208.859 33.4498C208.859 14.9756 222.514 1.15977e-05 239.359 1.15977e-05C256.204 1.15977e-05 269.859 14.9756 269.859 33.4498C269.859 51.9218 256.204 66.8996 239.359 66.8996Z" fill="white"/>
<path d="M387.217 66.8996C387.217 66.99 387.215 67.0782 387.213 67.1663C387.215 67.1663 387.215 67.1663 387.217 67.1663C404.062 67.1663 417.717 82.1419 417.717 100.616C417.717 119.09 404.062 134.066 387.217 134.066C370.372 134.066 356.717 119.09 356.717 100.616C356.717 100.526 356.719 100.438 356.721 100.349C356.719 100.349 356.719 100.349 356.717 100.349C356.715 100.349 356.715 100.349 356.713 100.349C356.713 100.44 356.717 100.528 356.717 100.616C356.717 119.09 343.062 134.066 326.217 134.066C309.372 134.066 295.717 119.09 295.717 100.616C295.717 82.1419 309.372 67.1663 326.217 67.1663C326.219 67.1663 326.219 67.1663 326.221 67.1663C326.221 67.0759 326.217 66.9878 326.217 66.8996C309.372 66.8996 295.717 51.9241 295.717 33.4498C295.717 14.9756 309.372 1.15977e-05 326.217 1.15977e-05C343.062 1.15977e-05 356.717 14.9756 356.717 33.4498C356.717 14.9756 370.372 1.15977e-05 387.217 1.15977e-05C404.062 1.15977e-05 417.717 14.9756 417.717 33.4498C417.717 51.9218 404.062 66.8996 387.217 66.8996Z" fill="white"/>
</svg>
