<svg width="293" height="279" viewBox="0 0 293 279" fill="none" xmlns="http://www.w3.org/2000/svg">
<path d="M236.581 113.694C240.829 113.694 244.25 117.163 244.25 121.375C244.25 125.574 240.829 129.044 236.581 129.044H215.219V142.737H236.581C240.829 142.737 244.25 146.182 244.25 150.406C244.25 154.593 240.829 158.062 236.581 158.062H207.538C203.339 158.062 199.906 154.593 199.906 150.406V92.3318C199.906 88.1324 203.339 84.6633 207.575 84.6633H236.618C240.829 84.6633 244.25 88.1324 244.25 92.3318C244.25 96.58 240.829 100 236.581 100H215.219V113.694H236.581ZM189.657 150.406C189.657 153.692 187.539 156.614 184.399 157.661C183.619 157.916 182.78 158.038 181.976 158.038C179.408 158.038 177.217 156.943 175.768 154.995L146.031 114.619V150.406C146.031 154.593 142.635 158.062 138.351 158.062C134.139 158.062 130.731 154.593 130.731 150.406V92.3318C130.731 89.0453 132.837 86.1239 135.965 85.0893C136.695 84.8093 137.62 84.6876 138.326 84.6876C140.7 84.6876 142.891 85.9535 144.352 87.7794L174.32 128.313V92.3318C174.32 88.1324 177.752 84.6633 181.988 84.6633C186.188 84.6633 189.657 88.1324 189.657 92.3318V150.406ZM119.776 150.406C119.776 154.593 116.343 158.062 112.095 158.062C107.895 158.062 104.463 154.593 104.463 150.406V92.3318C104.463 88.1324 107.895 84.6633 112.131 84.6633C116.343 84.6633 119.776 88.1324 119.776 92.3318V150.406ZM89.7587 158.062H60.7156C56.5161 158.062 53.047 154.593 53.047 150.406V92.3318C53.047 88.1324 56.5161 84.6633 60.7156 84.6633C64.9515 84.6633 68.3841 88.1324 68.3841 92.3318V142.737H89.7587C93.9947 142.737 97.4151 146.182 97.4151 150.406C97.4151 154.593 93.9825 158.062 89.7587 158.062M293 119.184C293 53.8064 227.452 0.601196 146.932 0.601196C66.4122 0.601196 0.864258 53.8064 0.864258 119.184C0.864258 177.745 52.8401 226.812 123.014 236.136C127.773 237.134 134.249 239.276 135.892 243.317C137.353 246.981 136.853 252.641 136.354 256.463L134.358 268.879C133.81 272.543 131.437 283.316 147.127 276.73C162.841 270.169 231.311 227.092 261.985 191.828C282.97 168.835 293 145.281 293 119.184" fill="#C4FD0B"/>
</svg>
