<svg width="299" height="299" viewBox="0 0 299 299" fill="none" xmlns="http://www.w3.org/2000/svg">
<path d="M236.572 49.8043H62.2583C52.3516 49.8043 42.8508 53.7397 35.8457 60.7448C28.8407 67.7498 24.9053 77.2507 24.9053 87.1573V211.667C24.9053 221.574 28.8407 231.075 35.8457 238.08C42.8508 245.085 52.3516 249.02 62.2583 249.02H236.572C246.479 249.02 255.98 245.085 262.985 238.08C269.99 231.075 273.925 221.574 273.925 211.667V87.1573C273.925 77.2507 269.99 67.7498 262.985 60.7448C255.98 53.7397 246.479 49.8043 236.572 49.8043V49.8043ZM236.572 74.7063L155.641 130.362C153.748 131.455 151.601 132.03 149.415 132.03C147.23 132.03 145.083 131.455 143.19 130.362L62.2583 74.7063H236.572Z" fill="white"/>
</svg>
