<svg width="235" height="236" viewBox="0 0 235 236" fill="none" xmlns="http://www.w3.org/2000/svg">
<path d="M106.497 152.81L84.7271 174.64C80.1377 179.242 72.8418 179.242 68.1347 174.758C66.8403 173.46 65.5458 172.28 64.2514 170.982C52.3516 158.97 41.3762 146.071 31.4196 132.396C21.7702 118.944 14.0035 105.492 8.35503 92.158C2.82424 78.706 0 65.844 0 53.572C0 45.548 1.41212 37.878 4.23635 30.798C7.06059 23.6 11.5323 16.992 17.7692 11.092C25.3005 3.658 33.5378 0 42.2459 0C45.5408 0 48.8358 0.708001 51.7777 2.124C54.8373 3.54 57.5438 5.664 59.662 8.732L86.9629 47.318C89.0811 50.268 90.6109 52.982 91.67 55.578C92.7291 58.056 93.3175 60.534 93.3175 62.776C93.3175 65.608 92.4937 68.44 90.8463 71.154C89.3165 73.868 87.0806 76.7 84.2564 79.532L75.313 88.854C74.0185 90.152 73.4301 91.686 73.4301 93.574C73.4301 94.518 73.5478 95.344 73.7832 96.288C74.1362 97.232 74.4892 97.94 74.7246 98.648C76.8428 102.542 80.4907 107.616 85.6685 113.752C90.9639 119.888 96.6124 126.142 102.732 132.396C103.908 133.576 105.203 134.756 106.38 135.936C111.087 140.538 111.204 148.09 106.497 152.81V152.81ZM235 192.694C234.984 197.147 233.979 201.541 232.058 205.556C230.058 209.804 227.469 213.816 224.056 217.592C218.29 223.964 211.935 228.566 204.757 231.516C204.639 231.516 204.522 231.634 204.404 231.634C197.461 234.466 189.93 236 181.81 236C169.807 236 156.98 233.168 143.448 227.386C129.915 221.604 116.382 213.816 102.967 204.022C98.3776 200.6 93.7882 197.178 89.4342 193.52L127.914 154.934C131.209 157.412 134.151 159.3 136.622 160.598C137.211 160.834 137.917 161.188 138.741 161.542C139.682 161.896 140.623 162.014 141.683 162.014C143.683 162.014 145.213 161.306 146.507 160.008L155.451 151.158C158.393 148.208 161.217 145.966 163.923 144.55C166.63 142.898 169.336 142.072 172.278 142.072C174.514 142.072 176.868 142.544 179.457 143.606C182.046 144.668 184.752 146.202 187.694 148.208L226.645 175.938C229.705 178.062 231.823 180.54 233.117 183.49C234.294 186.44 235 189.39 235 192.694V192.694Z" fill="white"/>
</svg>
