<svg width="199" height="199" viewBox="0 0 199 199" fill="none" xmlns="http://www.w3.org/2000/svg">
<g filter="url(#filter0_i_702_1129)">
<path d="M198.584 99.5C198.584 104.463 187.974 108.57 187.289 113.361C186.434 118.324 195.332 125.512 193.792 130.132C192.252 134.924 180.957 135.437 178.733 139.886C176.508 144.336 182.669 153.919 179.76 157.855C176.679 161.791 165.727 158.882 162.304 162.304C158.882 165.727 161.791 176.679 157.684 179.588C153.748 182.497 144.165 176.337 139.715 178.561C135.437 180.786 134.753 192.08 129.961 193.621C125.341 195.161 118.153 186.262 113.191 187.118C108.399 187.802 104.292 198.412 99.3292 198.412C94.3665 198.412 90.2594 187.802 85.4678 187.118C80.6762 186.433 73.4888 195.161 68.8683 193.792C64.0768 192.252 63.5634 180.957 59.114 178.732C54.6647 176.508 45.0815 182.668 41.1455 179.759C37.2096 176.679 40.1188 165.727 36.6962 162.304C33.2736 158.882 22.3214 161.791 19.4122 157.684C16.5031 153.748 22.6637 144.165 20.2679 139.715C18.0432 135.437 6.74874 134.752 5.20859 130.132C3.66843 125.512 12.5671 118.324 11.7115 113.361C11.027 108.57 0.416992 104.463 0.416992 99.5C0.416992 94.5373 11.027 90.4302 11.7115 85.6386C12.5671 80.6759 3.66843 73.4885 5.20859 68.868C6.74874 64.0764 18.0432 63.5631 20.2679 59.1137C22.6637 54.6644 16.5031 45.2523 19.4122 41.1452C22.3214 37.2093 33.2736 40.1185 36.6962 36.5248C40.1188 33.1022 37.2096 22.15 41.3167 19.2408C45.2526 16.5028 54.8358 22.6634 59.114 20.2676C63.5634 18.0429 64.0768 6.74844 68.8683 5.20828C73.4888 3.66813 80.6762 12.5668 85.6389 11.7112C90.4305 11.0266 94.5376 0.416687 99.5003 0.416687C104.463 0.416687 108.57 11.0266 113.362 11.7112C118.324 12.5668 125.512 3.66813 130.132 5.20828C134.924 6.74844 135.437 18.0429 139.887 20.2676C144.165 22.6634 153.748 16.5028 157.684 19.4119C161.62 22.3211 158.711 33.2733 162.304 36.6959C165.727 40.1185 176.679 37.2093 179.588 41.3164C182.498 45.2523 176.337 54.8355 178.562 59.2848C180.786 63.5631 192.252 64.0764 193.792 68.868C195.332 73.4885 186.434 80.6759 187.289 85.6386C187.974 90.4302 198.584 94.5373 198.584 99.5Z" fill="url(#paint0_linear_702_1129)"/>
</g>
<defs>
<filter id="filter0_i_702_1129" x="-4.58301" y="-4.58331" width="203.167" height="202.996" filterUnits="userSpaceOnUse" color-interpolation-filters="sRGB">
<feFlood flood-opacity="0" result="BackgroundImageFix"/>
<feBlend mode="normal" in="SourceGraphic" in2="BackgroundImageFix" result="shape"/>
<feColorMatrix in="SourceAlpha" type="matrix" values="0 0 0 0 0 0 0 0 0 0 0 0 0 0 0 0 0 0 127 0" result="hardAlpha"/>
<feOffset dx="-5" dy="-5"/>
<feGaussianBlur stdDeviation="2.5"/>
<feComposite in2="hardAlpha" operator="arithmetic" k2="-1" k3="1"/>
<feColorMatrix type="matrix" values="0 0 0 0 0 0 0 0 0 0 0 0 0 0 0 0 0 0 1 0"/>
<feBlend mode="normal" in2="shape" result="effect1_innerShadow_702_1129"/>
</filter>
<linearGradient id="paint0_linear_702_1129" x1="99.5003" y1="0.416687" x2="99.5003" y2="198.412" gradientUnits="userSpaceOnUse">
<stop offset="0.640625" stop-color="#BFBFBF"/>
<stop offset="1" stop-color="#808080"/>
</linearGradient>
</defs>
</svg>
