<svg width="115" height="44" viewBox="0 0 115 44" fill="none" xmlns="http://www.w3.org/2000/svg">
<path d="M14.643 18.8274C14.7994 19.8071 14.7988 21.033 14.6711 21.7613L16.1934 21.8621C16.3432 21.1433 16.2808 19.9427 16.0929 18.9757L14.643 18.8274ZM11.6708 15.5782C12.2116 16.513 12.7847 17.8007 12.9313 18.6198L14.3131 17.8259C14.1256 17.0416 13.5243 15.8202 12.9647 14.9295L11.6708 15.5782ZM15.1565 14.1938C14.584 14.6803 13.5833 15.3757 12.8562 15.7963L13.7879 16.7934C14.5215 16.4799 15.5005 15.9579 16.448 15.4486L15.1565 14.1938ZM15.9711 16.4454C14.7688 17.1853 12.754 18.179 11.2896 18.6767L12.0888 19.6174C13.5156 19.2079 15.4866 18.3782 17.0765 17.6469L15.9711 16.4454ZM16.1913 22.3569L13.5569 28.539L15.3453 29.3011L17.9797 23.119L16.1913 22.3569ZM10.3934 18.0861L9.93639 19.5871C11.4848 20.1165 13.2949 20.7052 15.2027 21.3095L15.7546 19.9533C13.7016 19.2611 11.7999 18.5812 10.3934 18.0861ZM20.2854 21.0753C20.4483 22.1622 20.4763 23.5046 20.311 24.3211L21.8995 24.4502C22.0428 23.6243 21.9833 22.2945 21.7701 21.2644L20.2854 21.0753ZM16.9727 17.707C17.5515 18.7363 18.1437 20.1627 18.303 21.0132L19.767 20.3326C19.5762 19.4948 18.9337 18.1252 18.336 17.1401L16.9727 17.707ZM20.5311 16.458C19.8862 16.9919 18.7595 17.738 17.9789 18.1619L18.9233 19.1904C19.7419 18.861 20.8154 18.301 21.8574 17.7536L20.5311 16.458ZM21.3931 18.782C20.1278 19.5472 18.0059 20.5474 16.4753 21.017L17.2778 22.0111C18.8116 21.5951 20.8583 20.7716 22.5333 20.0244L21.3931 18.782ZM16.2664 20.5888L15.9639 22.1557C17.4555 22.6347 19.1806 23.2394 20.9559 23.7872L21.4983 22.4531C19.4989 21.7576 17.6635 21.1059 16.2664 20.5888ZM10.256 20.2451L8.81653 23.6232L12.8349 25.3355L13.4559 23.8783L11.0713 22.8622L11.8899 20.9413L10.256 20.2451ZM19.2201 24.065L18.4015 25.9858L16.6352 25.2332L16.0143 26.6904L19.4144 28.1393L20.8539 24.7612L19.2201 24.065ZM13.3652 21.1526L12.4807 23.228C11.9821 24.3982 11.1932 25.3925 8.60528 25.0985C8.8395 25.5896 9.09981 26.5092 9.14184 27.0228C12.3598 27.2462 13.485 25.7691 14.2188 24.0469L15.1315 21.9053L13.3652 21.1526ZM12.2167 8.2974L11.5393 9.88709L17.0811 12.2486L17.7586 10.6589L12.2167 8.2974ZM22.3731 12.6253L21.6956 14.215L27.3037 16.6048L27.9811 15.0151L22.3731 12.6253ZM28.2802 11.8032L21.1015 28.6495C20.9791 28.9365 20.8438 29.0093 20.5568 28.8869C20.2697 28.7646 19.3866 28.3883 18.5885 27.996C18.628 28.8216 18.4511 30.155 18.2384 30.8991C19.6956 31.5201 20.73 31.9087 21.6689 31.7871C22.6077 31.6654 23.1169 31.0214 23.6532 29.7629L30.8413 12.8946L28.2802 11.8032ZM13.6639 5.57479L12.9018 7.36318L17.4059 9.28252L15.8535 12.9255L11.3494 11.0062L10.5873 12.7946L17.5863 15.7771L20.6629 8.55729L13.6639 5.57479ZM29.6049 12.3677L22.0981 9.16884L19.0215 16.3887L26.5283 19.5876L27.2904 17.7992L22.3006 15.6728L23.853 12.0298L28.8428 14.1561L29.6049 12.3677ZM12.0963 4.90678L3.61921 24.7999L6.13621 25.8725L14.6133 5.97936L12.0963 4.90678Z" fill="black"/>
<path d="M33.5013 16.5802L33.1446 19.2202L43.5144 20.6211L43.8711 17.981L33.5013 16.5802ZM36.6539 22.2856L36.3036 24.8781L40.2042 25.405L40.5544 22.8125L36.6539 22.2856ZM37.7237 13.4695L37.1197 17.9409L39.95 18.3232L40.554 13.8518L37.7237 13.4695ZM49.2803 18.2758C49.8448 21.0887 51.3106 24.5804 53.475 26.6649C53.9841 25.765 54.6647 24.6702 55.294 23.9561C53.2177 22.2951 51.7268 18.6306 51.035 15.1466L48.2285 14.7675C47.0247 17.5836 44.6445 21.0401 42.1126 22.3933C42.4713 23.1441 42.9052 24.4136 43.0544 25.2814C45.6706 23.8427 48.0231 20.77 49.2803 18.2758ZM35.5834 18.5567C34.6748 24.9244 33.8979 30.3169 30.7431 33.2329C31.3892 33.8287 32.1644 34.9022 32.4994 35.6497C36.2037 32.251 37.3039 26.0788 38.3661 18.9326L35.5834 18.5567ZM39.6506 22.6904L39.5799 23.2137C38.5209 30.336 38.0505 32.7427 37.6198 33.2415C37.391 33.5012 37.1911 33.5469 36.8819 33.5051C36.5014 33.4537 35.8592 33.367 35.084 33.1896C35.3919 33.9577 35.5295 35.0903 35.4743 35.8579C36.4668 36.0404 37.4213 36.1451 38.0288 36.1303C38.7378 36.0808 39.2424 35.931 39.7875 35.3023C40.5215 34.5296 41.0196 31.7392 42.1602 24.1919C42.229 23.8622 42.3382 23.0535 42.3382 23.0535L39.6506 22.6904ZM45.4932 25.514C46.8502 26.7629 48.422 28.5736 49.0558 29.7975L51.3506 28.049C50.6422 26.8392 48.9798 25.1616 47.6131 23.984L45.4932 25.514ZM42.5675 31.7545C45.2005 33.418 48.4075 36.0308 49.8096 37.8428L52.0291 35.5756C50.5287 33.7745 47.1802 31.312 44.6025 29.7771L42.5675 31.7545Z" fill="black"/>
<path d="M74.1918 15.887C75.6335 16.8789 77.3568 18.3413 78.1294 19.3994L80.218 17.4705C79.3535 16.449 77.5923 15.0643 76.1331 14.1232L74.1918 15.887ZM59.2398 22.6293L59.6061 25.3407L81.083 22.4394L80.7167 19.728L59.2398 22.6293ZM59.6972 29.4212L60.7995 32.2027C63.7841 31.1699 67.81 29.7784 71.5538 28.4492L70.9895 25.8857C66.9301 27.209 62.5172 28.6044 59.6972 29.4212ZM63.2415 18.1896L65.407 34.22C65.4616 34.6244 65.335 34.7626 64.9069 34.8204C64.482 34.902 63.1025 35.0884 61.7372 35.2002C62.2745 35.951 62.9237 37.171 63.1519 37.9636C65.1022 37.7002 66.4926 37.4155 67.3829 36.8351C68.297 36.2514 68.5001 35.4248 68.2913 33.8788L66.1193 17.8009L63.2415 18.1896ZM67.7413 14.7483C65.404 15.9116 61.7933 17.1502 58.5008 18.0551C58.9205 18.6523 59.4219 19.6744 59.6545 20.321C63.0518 19.4746 67.0321 18.283 69.9955 16.914L67.7413 14.7483ZM70.0785 14.481C71.5925 25.1503 75.0091 36.4587 79.9324 35.7936C82.0968 35.5013 82.8592 34.3327 82.7424 30.0619C81.9395 29.8555 80.8744 29.3213 80.1899 28.7356C80.4295 31.5852 80.3253 32.786 79.8258 32.8534C77.6615 33.1458 74.2036 23.6836 73.0753 14.0761L70.0785 14.481ZM77.9068 23.6677C76.3202 27.878 72.8804 31.6363 69.0639 34.0409C69.8642 34.5866 70.7776 35.432 71.3021 36.0877C75.2985 33.2229 78.6966 29.1553 80.5725 24.3974L77.9068 23.6677Z" fill="black"/>
<path d="M91.5727 13.5768L92.3724 15.4535L96.2804 13.7882L95.4807 11.9115L91.5727 13.5768ZM98.2185 10.7449L99.0182 12.6216L102.948 10.9469L102.149 9.07015L98.2185 10.7449ZM99.9612 6.14117L106.98 22.6121C107.159 23.0316 107.061 23.2299 106.641 23.4087C106.209 23.6189 104.663 24.2775 103.288 24.7852C103.924 25.297 104.82 26.2979 105.231 26.9573C107.307 26.0729 108.679 25.436 109.396 24.6087C110.132 23.8255 110.118 22.9967 109.506 21.5616L102.478 5.0686L99.9612 6.14117ZM88.6347 10.9677L96.9425 30.4635L99.3932 29.4191L91.0855 9.9234L88.6347 10.9677ZM90.3348 10.2433L91.191 12.2525L93.7742 11.1517L95.6747 15.6116L93.0915 16.7124L93.9477 18.7216L98.518 16.774L94.9052 8.29572L90.3348 10.2433ZM101.198 5.6143L95.8987 7.87234L99.5116 16.3507L104.811 14.0926L103.954 12.0834L100.731 13.4571L98.8303 8.99712L102.054 7.62348L101.198 5.6143ZM85.8587 10.8202C86.2829 14.4483 86.0322 18.3901 85.1282 21.2276C85.8487 21.7554 87.1288 22.9839 87.6318 23.5522C88.7549 19.9431 88.9985 14.8825 88.6105 10.4824L85.8587 10.8202ZM86.6924 17.6131L92.9208 32.2294L95.4378 31.1568L88.1933 14.156L88.1082 14.1401L86.6924 17.6131Z" fill="black"/>
</svg>
