<?xml version="1.0" encoding="UTF-8"?>
<svg id="_圖層_2" data-name="圖層 2" xmlns="http://www.w3.org/2000/svg" viewBox="0 0 210.74 140.43">
  <defs>
    <style>
      .cls-1, .cls-2, .cls-3 {
        fill: #fff;
      }

      .cls-4, .cls-5, .cls-3, .cls-6, .cls-7 {
        stroke-miterlimit: 10;
      }

      .cls-4, .cls-2, .cls-3, .cls-7 {
        stroke: #000;
      }

      .cls-8 {
        fill: #9f9f9f;
      }

      .cls-5 {
        stroke: #fff;
        stroke-width: 2px;
      }

      .cls-5, .cls-6 {
        fill: none;
      }

      .cls-9 {
        fill: gray;
      }

      .cls-2 {
        stroke-linejoin: round;
      }

      .cls-6 {
        stroke: #c6fd30;
        stroke-linecap: round;
        stroke-width: 3px;
      }

      .cls-10 {
        fill: #8af2f1;
      }

      .cls-7 {
        fill: #c6fd30;
      }
    </style>
  </defs>
  <g id="_圖_文" data-name="圖、文">
    <g>
      <polygon points="57.32 59.34 210.74 75.67 153.35 115.12 0 97.76 57.32 59.34"/>
      <g>
        <g>
          <path class="cls-7" d="m18.91,24.21L54.21.91c.48-.32,1.03-.45,1.58-.4l135.49,13.76c2.6.26,3.37,4.18,1.12,5.69l-34.15,22.86c-.48.32-1.03.46-1.58.41L20.12,30.14c-.66-.06-1.26-.42-1.69-.99l-.22-.3c-1.09-1.46-.75-3.68.7-4.64Z"/>
          <path class="cls-3" d="m15.43,28.31v58.29c0,1.88,1.25,3.46,2.89,3.65l135.67,15.68c1.89.22,3.54-1.48,3.54-3.65v-58.96c0-1.89-1.26-3.47-2.91-3.65L18.95,24.66c-1.89-.21-3.53,1.49-3.53,3.65Z"/>
          <path class="cls-4" d="m156.55,40.7l37.18-23.44v56.03c0,1.27-.55,2.47-1.46,3.2l-35.71,28.41V40.7Z"/>
          <g>
            <path class="cls-9" d="m102.83,94.34c-.13,0-.25,0-.38-.02l-38.48-4.94c-1.68-.21-2.94-1.8-2.94-3.7v-42.22c0-2.05,1.49-3.72,3.32-3.72.1,0,.21,0,.32.02l38.48,4.05c1.72.18,3.01,1.77,3.01,3.7v43.1c0,.99-.34,1.92-.96,2.62-.63.71-1.47,1.11-2.36,1.11h0Z"/>
            <path d="m64.35,40.25c.09,0,.17,0,.26.01l38.48,4.05c1.45.15,2.56,1.54,2.56,3.21v43.1c0,1.8-1.28,3.22-2.82,3.22-.11,0-.21,0-.32-.02l-38.48-4.94c-1.43-.18-2.51-1.56-2.51-3.2v-42.22c0-1.79,1.28-3.22,2.82-3.22m0-1c-2.1,0-3.82,1.89-3.82,4.22v42.22c0,2.14,1.45,3.95,3.38,4.19l38.48,4.94c.15.02.3.03.45.03,2.1,0,3.82-1.89,3.82-4.22v-43.1c0-2.19-1.49-3.99-3.46-4.2l-38.48-4.05c-.12-.01-.25-.02-.37-.02h0Z"/>
          </g>
          <path d="m75.36,41.39l-10.76-1.13c-1.65-.17-3.08,1.31-3.08,3.21v42.22c0,1.64,1.08,3.02,2.51,3.2l11.34,1.45v-48.95Z"/>
          <path class="cls-1" d="m75.23,80.46l-13.58,6.21c.39,1.02,1.23,1.77,2.26,1.9l38.48,4.94c1.67.21,3.14-1.28,3.14-3.2v-6.08l-30.29-3.77Z"/>
          <g>
            <path d="m85.15,82.49c-8.26,0-15.58-7.77-16.31-17.31-.38-4.98,1.12-9.7,4.13-12.95,2.47-2.66,5.77-4.13,9.31-4.13,8.26,0,15.58,7.76,16.31,17.31.38,4.98-1.12,9.71-4.13,12.95-2.47,2.66-5.77,4.13-9.31,4.13Z"/>
            <path d="m82.28,49.6c7.5,0,14.14,7.14,14.82,15.92.35,4.57-1.01,8.88-3.74,11.82-2.18,2.35-5.1,3.65-8.21,3.65-7.5,0-14.14-7.14-14.82-15.92-.35-4.57,1.01-8.88,3.74-11.82,2.18-2.35,5.1-3.65,8.21-3.65m0-3c-9.04,0-15.73,8.37-14.94,18.69.79,10.32,8.76,18.69,17.81,18.69s15.73-8.37,14.94-18.69c-.79-10.32-8.76-18.69-17.81-18.69h0Z"/>
          </g>
          <path class="cls-2" d="m79.11,55.65c6.69,0,12.62,6.23,13.21,13.88.27,3.52-.66,6.79-2.61,9.22-1.94,2.41-4.68,3.74-7.73,3.74-6.69,0-12.62-6.23-13.21-13.88-.27-3.52.66-6.79,2.61-9.22,1.94-2.41,4.68-3.74,7.73-3.74m0-5.27c-9.04,0-15.73,8.37-14.94,18.69.79,10.32,8.76,18.69,17.81,18.69s15.73-8.37,14.94-18.69-8.76-18.69-17.81-18.69h0Z"/>
          <path class="cls-7" d="m81.98,85.13c-7.86,0-14.82-7.31-15.51-16.29-.33-4.26.81-8.25,3.21-11.23,2.38-2.96,5.73-4.59,9.44-4.59,7.86,0,14.82,7.31,15.51,16.29.33,4.26-.81,8.25-3.21,11.23-2.38,2.96-5.73,4.59-9.44,4.59Z"/>
          <g>
            <line class="cls-6" x1="115.18" y1="50.78" x2="147.01" y2="54.57"/>
            <line class="cls-6" x1="115.18" y1="60.19" x2="147.01" y2="63.98"/>
            <line class="cls-6" x1="115.18" y1="69.59" x2="147.01" y2="73.38"/>
            <line class="cls-6" x1="115.18" y1="78.99" x2="147.01" y2="82.78"/>
            <line class="cls-6" x1="115.18" y1="88.4" x2="147.01" y2="92.19"/>
          </g>
          <g>
            <line class="cls-6" x1="31.28" y1="41.57" x2="54.72" y2="44.36"/>
            <line class="cls-6" x1="54.72" y1="53.74" x2="31.28" y2="50.95"/>
            <line class="cls-6" x1="31.28" y1="60.33" x2="54.72" y2="63.12"/>
            <line class="cls-6" x1="31.28" y1="69.71" x2="54.72" y2="72.5"/>
            <line class="cls-6" x1="31.28" y1="79.09" x2="54.72" y2="81.88"/>
          </g>
          <polygon class="cls-8" points="19.05 38.27 27.09 39.26 27.09 51.71 19.11 50.68 19.05 38.27"/>
          <polygon class="cls-10" points="30.25 31.07 27.96 30.78 27.96 26.73 30.25 26.73 30.25 31.07"/>
          <polygon class="cls-10" points="35.61 31.59 33.32 31.29 33.32 27.25 35.61 27.25 35.61 31.59"/>
          <polygon class="cls-10" points="40.87 32.2 38.58 31.91 38.58 27.86 40.87 27.86 40.87 32.2"/>
          <polygon class="cls-10" points="46.12 32.84 43.83 32.55 43.83 28.5 46.12 28.5 46.12 32.84"/>
          <rect class="cls-1" x="84.52" y="59.77" width="3.91" height="3.91" rx="1.96" ry="1.96"/>
          <rect class="cls-1" x="87.17" y="64.13" width="3.91" height="3.91" rx="1.96" ry="1.96"/>
        </g>
        <path class="cls-10" d="m83.89,73.25c0-3.21-3.47-5.21-6.25-3.61l-59.58,56.95c-1.04.79-1.63,1.66-1.68,2.6-.3,4.98,14.55,9.91,33.15,11.02,18.51,1.1,33.77-1.99,34.21-6.93h.14s0-60.03,0-60.03Z"/>
        <path class="cls-1" d="m65.48,94.32c0,.8,1.4,7.02,1.54,6.87-.15.15,6.07,1.54,6.87,1.54-.8,0-7.02,1.4-6.87,1.54-.15-.15-1.54,6.07-1.54,6.87,0-.8-1.4-7.02-1.54-6.87.15-.15-6.07-1.54-6.87-1.54.8,0,7.02-1.4,6.87-1.54.15.15,1.54-6.07,1.54-6.87Z"/>
        <g>
          <line class="cls-5" x1="33.19" y1="121.92" x2="52.03" y2="121.92"/>
          <line class="cls-5" x1="33.76" y1="125.14" x2="51.46" y2="118.7"/>
          <line class="cls-5" x1="35.4" y1="127.97" x2="49.83" y2="115.86"/>
          <line class="cls-5" x1="37.9" y1="130.08" x2="47.32" y2="113.76"/>
          <line class="cls-5" x1="40.98" y1="131.2" x2="44.25" y2="112.64"/>
          <line class="cls-5" x1="44.25" y1="131.2" x2="40.98" y2="112.64"/>
          <line class="cls-5" x1="47.32" y1="130.08" x2="37.9" y2="113.76"/>
          <line class="cls-5" x1="49.83" y1="127.97" x2="35.4" y2="115.86"/>
          <line class="cls-5" x1="51.46" y1="125.14" x2="33.76" y2="118.7"/>
        </g>
        <path class="cls-1" d="m70.2,126.52c12.55,7.74,6.27,14.02-1.47,1.47-7.74,12.55-14.02,6.27-1.47-1.47-12.55-7.74-6.27-14.02,1.47-1.47,7.74-12.55,14.02-6.27,1.47,1.47Z"/>
      </g>
    </g>
  </g>
</svg>