<?xml version="1.0" encoding="UTF-8"?>
<svg id="_圖層_2" data-name="圖層 2" xmlns="http://www.w3.org/2000/svg" viewBox="0 0 175.57 126.96">
  <defs>
    <style>
      .cls-1 {
        fill: #c6fd30;
      }

      .cls-2 {
        fill: none;
        stroke: #9f9f9f;
        stroke-linecap: round;
        stroke-miterlimit: 10;
        stroke-width: 3px;
      }
    </style>
  </defs>
  <g id="_圖_文" data-name="圖、文">
    <g>
      <path d="m37.89,95.25l-18.33-12.28c-.94-.63-1.51-1.69-1.51-2.82v-22.28c0-1.14.57-2.2,1.51-2.83l18.33-12.22c2.26-1.51,5.28.11,5.28,2.83v46.78c0,2.72-3.03,4.34-5.29,2.82Z"/>
      <rect y="56.34" width="15.18" height="25.39" rx="4.32" ry="4.32"/>
      <path class="cls-2" d="m52.52,80.14c6.14-6.14,6.14-16.07,0-22.21"/>
      <path class="cls-2" d="m60.49,85.4c9.05-9.05,9.05-23.68,0-32.73"/>
      <path class="cls-2" d="m67.87,93.48c13.51-13.51,13.51-35.38,0-48.9"/>
      <g>
        <path class="cls-1" d="m119.59,115.36c-.28,0-.5-.22-.5-.5v-2.46c-.54-.52-1.3-.95-2.1-1.39-1.59-.89-3.4-1.9-3.4-3.95s1.8-3.06,3.4-3.95c.8-.45,1.56-.87,2.1-1.39v-1.67c0-.9-.79-1.44-2.48-2.38-1.7-.95-3.81-2.12-3.81-4.64s2.11-3.69,3.81-4.64c1.69-.94,2.48-1.48,2.48-2.38s-.79-1.44-2.48-2.38c-1.7-.95-3.81-2.12-3.81-4.64s2.11-3.69,3.81-4.64c1.69-.94,2.48-1.48,2.48-2.38s-.79-1.44-2.48-2.38c-1.7-.95-3.81-2.12-3.81-4.64s2.11-3.69,3.81-4.64c1.69-.94,2.48-1.48,2.48-2.38v-1.67c-.54-.52-1.3-.95-2.1-1.39-1.59-.89-3.4-1.9-3.4-3.95s1.8-3.06,3.4-3.95c.8-.45,1.56-.87,2.1-1.39v-3.35c-.54-.52-1.3-.95-2.1-1.39-1.59-.89-3.4-1.9-3.4-3.95s1.8-3.06,3.4-3.95c.8-.45,1.56-.87,2.1-1.39v-3.34c-.54-.52-1.3-.95-2.1-1.39-1.59-.89-3.4-1.9-3.4-3.95s1.8-3.06,3.4-3.95c.8-.45,1.56-.87,2.1-1.39v-3.35c-.54-.52-1.3-.95-2.1-1.39-1.59-.89-3.4-1.9-3.4-3.95s1.8-3.06,3.4-3.95c.8-.45,1.56-.87,2.1-1.39V1c0-.28.22-.5.5-.5h34.56c.28,0,.5.22.5.5v113.86c0,.28-.22.5-.5.5h-34.56Z"/>
        <path d="m154.15,1v113.86h-34.56v-2.67c-1.69-1.8-5.5-2.4-5.5-5.14s3.81-3.34,5.5-5.14v-1.88c0-1.2-1.03-1.87-2.74-2.82-1.66-.93-3.55-1.98-3.55-4.2s1.89-3.27,3.55-4.2c1.7-.95,2.74-1.61,2.74-2.82s-1.03-1.87-2.74-2.82c-1.66-.93-3.55-1.98-3.55-4.2s1.89-3.27,3.55-4.2c1.7-.95,2.74-1.61,2.74-2.82s-1.03-1.87-2.74-2.82c-1.66-.93-3.55-1.98-3.55-4.2s1.89-3.27,3.55-4.2c1.7-.95,2.74-1.61,2.74-2.82v-1.88c-1.69-1.8-5.5-2.4-5.5-5.14s3.81-3.34,5.5-5.14v-3.76c-1.69-1.8-5.5-2.4-5.5-5.14s3.81-3.34,5.5-5.14v-3.76c-1.69-1.8-5.5-2.4-5.5-5.14s3.81-3.34,5.5-5.14v-3.76c-1.69-1.8-5.5-2.4-5.5-5.14s3.81-3.34,5.5-5.14V1h34.56m0-1h-34.56c-.55,0-1,.45-1,1v2.24c-.49.42-1.15.79-1.84,1.18-1.63.91-3.65,2.05-3.65,4.39s2.03,3.48,3.65,4.39c.69.39,1.36.76,1.84,1.18v2.9c-.49.42-1.15.79-1.84,1.18-1.63.91-3.65,2.05-3.65,4.39s2.03,3.48,3.65,4.39c.69.39,1.36.76,1.84,1.18v2.9c-.49.42-1.15.79-1.84,1.18-1.63.91-3.65,2.05-3.65,4.39s2.03,3.48,3.65,4.39c.69.39,1.36.76,1.84,1.18v2.9c-.49.42-1.15.79-1.84,1.18-1.63.91-3.65,2.05-3.65,4.39s2.03,3.48,3.65,4.39c.69.39,1.36.76,1.84,1.18v1.45c0,.6-.66,1.07-2.23,1.94-1.72.96-4.06,2.27-4.06,5.07s2.35,4.12,4.06,5.07c1.57.88,2.23,1.34,2.23,1.94s-.66,1.07-2.23,1.94c-1.72.96-4.06,2.27-4.06,5.07s2.35,4.12,4.06,5.07c1.57.88,2.23,1.34,2.23,1.94s-.66,1.07-2.23,1.94c-1.72.96-4.06,2.27-4.06,5.07s2.35,4.12,4.06,5.07c1.57.88,2.23,1.34,2.23,1.94v1.45c-.49.42-1.15.79-1.84,1.18-1.63.91-3.65,2.05-3.65,4.39s2.03,3.48,3.65,4.39c.69.39,1.36.76,1.84,1.18v2.24c0,.55.45,1,1,1h34.56c.55,0,1-.45,1-1V1c0-.55-.45-1-1-1h0Z"/>
      </g>
      <g>
        <path d="m140.01,126.46c-.28,0-.5-.22-.5-.5v-2.46c-.54-.52-1.3-.95-2.1-1.39-1.59-.89-3.4-1.9-3.4-3.95s1.8-3.06,3.4-3.95c.8-.45,1.56-.87,2.1-1.39v-1.67c0-.9-.79-1.44-2.48-2.38-1.7-.95-3.81-2.12-3.81-4.64s2.11-3.69,3.81-4.64c1.69-.94,2.48-1.48,2.48-2.38s-.79-1.44-2.48-2.38c-1.7-.95-3.81-2.12-3.81-4.64s2.11-3.69,3.81-4.64c1.69-.94,2.48-1.48,2.48-2.38s-.79-1.44-2.48-2.38c-1.7-.95-3.81-2.12-3.81-4.64s2.11-3.69,3.81-4.64c1.69-.94,2.48-1.48,2.48-2.38v-1.67c-.54-.52-1.3-.95-2.1-1.39-1.59-.89-3.4-1.9-3.4-3.95s1.8-3.06,3.4-3.95c.8-.45,1.56-.87,2.1-1.39v-3.35c-.54-.52-1.3-.95-2.1-1.39-1.59-.89-3.4-1.9-3.4-3.95s1.8-3.06,3.4-3.95c.8-.45,1.56-.87,2.1-1.39v-3.35c-.54-.52-1.3-.95-2.1-1.39-1.59-.89-3.4-1.9-3.4-3.95s1.8-3.06,3.4-3.95c.8-.45,1.56-.87,2.1-1.39v-3.35c-.54-.52-1.3-.95-2.1-1.39-1.59-.89-3.4-1.9-3.4-3.95s1.8-3.06,3.4-3.95c.8-.45,1.56-.87,2.1-1.39v-2.46c0-.28.22-.5.5-.5h34.56c.28,0,.5.22.5.5v113.86c0,.28-.22.5-.5.5h-34.56Z"/>
        <path d="m174.57,12.1v113.86h-34.56v-2.67c-1.69-1.8-5.5-2.4-5.5-5.14s3.81-3.34,5.5-5.14v-1.88c0-1.2-1.03-1.87-2.74-2.82-1.66-.93-3.55-1.98-3.55-4.2s1.89-3.27,3.55-4.2c1.7-.95,2.74-1.61,2.74-2.82s-1.03-1.87-2.74-2.82c-1.66-.93-3.55-1.98-3.55-4.2s1.89-3.27,3.55-4.2c1.7-.95,2.74-1.61,2.74-2.82s-1.03-1.87-2.74-2.82c-1.66-.93-3.55-1.98-3.55-4.2s1.89-3.27,3.55-4.2c1.7-.95,2.74-1.61,2.74-2.82v-1.88c-1.69-1.8-5.5-2.4-5.5-5.14s3.81-3.34,5.5-5.14v-3.76c-1.69-1.8-5.5-2.4-5.5-5.14s3.81-3.34,5.5-5.14v-3.76c-1.69-1.8-5.5-2.4-5.5-5.14s3.81-3.34,5.5-5.14v-3.76c-1.69-1.8-5.5-2.4-5.5-5.14s3.81-3.34,5.5-5.14v-2.67h34.56m0-1h-34.56c-.55,0-1,.45-1,1v2.24c-.49.42-1.15.79-1.84,1.18-1.63.91-3.65,2.05-3.65,4.39s2.03,3.48,3.65,4.39c.69.39,1.36.76,1.84,1.18v2.9c-.49.42-1.15.79-1.84,1.18-1.63.91-3.65,2.05-3.65,4.39s2.03,3.48,3.65,4.39c.69.39,1.36.76,1.84,1.18v2.9c-.49.42-1.15.79-1.84,1.18-1.63.91-3.65,2.05-3.65,4.39s2.03,3.48,3.65,4.39c.69.39,1.36.76,1.84,1.18v2.9c-.49.42-1.15.79-1.84,1.18-1.63.91-3.65,2.05-3.65,4.39s2.03,3.48,3.65,4.39c.69.39,1.36.76,1.84,1.18v1.45c0,.6-.66,1.07-2.23,1.94-1.72.96-4.06,2.27-4.06,5.07s2.35,4.12,4.06,5.07c1.57.88,2.23,1.34,2.23,1.94s-.66,1.07-2.23,1.94c-1.72.96-4.06,2.27-4.06,5.07s2.35,4.12,4.06,5.07c1.57.88,2.23,1.34,2.23,1.94s-.66,1.07-2.23,1.94c-1.72.96-4.06,2.27-4.06,5.07s2.35,4.12,4.06,5.07c1.57.88,2.23,1.34,2.23,1.94v1.45c-.49.42-1.15.79-1.84,1.18-1.63.91-3.65,2.05-3.65,4.39s2.03,3.48,3.65,4.39c.69.39,1.36.76,1.84,1.18v2.24c0,.55.45,1,1,1h34.56c.55,0,1-.45,1-1V12.1c0-.55-.45-1-1-1h0Z"/>
      </g>
    </g>
  </g>
</svg>