<?xml version="1.0" encoding="UTF-8"?>
<svg id="_圖層_2" data-name="圖層 2" xmlns="http://www.w3.org/2000/svg" viewBox="0 0 204.76 128.39">
  <defs>
    <style>
      .cls-1 {
        fill: #fff;
      }

      .cls-2 {
        fill: #c6fd30;
        stroke: #000;
        stroke-linecap: round;
        stroke-linejoin: round;
      }

      .cls-3 {
        fill: #8af2f1;
      }
    </style>
  </defs>
  <g id="_圖_文" data-name="圖、文">
    <g>
      <polygon points="126.52 128.39 49.05 100.93 126.52 73.67 203.98 100.93 126.52 128.39 126.52 128.39"/>
      <g>
        <path class="cls-2" d="m201.11,79.4l-7.22-2.59v-.02l-76.4-27.45c2.01,1.66,3.29,4.17,3.29,6.98,0,2.19-.78,4.19-2.07,5.75-1.04,1.25-2.48,1.93-3.97,2.69l-1.93.69-64.04,23.01,82.16,29.73,63.64-23.03,2.03-.67c4.57-1.77,7.67-3.48,7.67-8.23,0-2.75-1.23-5.2-3.16-6.86Z"/>
        <path class="cls-1" d="m176.72,74.75c0,.86,1.5,7.52,1.65,7.36-.16.16,6.5,1.65,7.36,1.65-.86,0-7.52,1.5-7.36,1.65-.16-.16-1.65,6.5-1.65,7.36,0-.86-1.5-7.52-1.65-7.36.16-.16-6.5-1.65-7.36-1.65.86,0,7.52-1.5,7.36-1.65.16.16,1.65-6.5,1.65-7.36Z"/>
        <path class="cls-1" d="m159.55,83.33c0,.86,1.5,7.52,1.65,7.36-.16.16,6.5,1.65,7.36,1.65-.86,0-7.52,1.5-7.36,1.65-.16-.16-1.65,6.5-1.65,7.36,0-.86-1.5-7.52-1.65-7.36.16-.16-6.5-1.65-7.36-1.65.86,0,7.52-1.5,7.36-1.65.16.16,1.65-6.5,1.65-7.36Z"/>
      </g>
      <g>
        <path class="cls-3" d="m1.3,91.2c-.1,0-.2-.03-.29-.09-.13-.09-.21-.25-.21-.41l-.3-63.29c0-.22.14-.41.35-.48L84.08.52s.1-.02.15-.02c.11,0,.21.03.3.1.13.09.2.25.2.4l-.29,59.7c0,.21-.13.4-.33.47L1.47,91.17c-.06.02-.11.03-.17.03Z"/>
        <path d="m84.23,1l-.29,59.7L1.3,90.7l-.3-63.29L84.23,1m0-1c-.1,0-.2.02-.3.05L.7,26.45C.28,26.59,0,26.98,0,27.41l.3,63.29c0,.33.16.63.43.82.17.12.37.18.57.18.11,0,.23-.02.34-.06l82.65-30.01c.39-.14.66-.52.66-.94l.29-59.7c0-.32-.15-.62-.41-.81-.17-.13-.38-.19-.59-.19h0Zm0,2h0,0Z"/>
      </g>
      <g>
        <path d="m48.85,52.45l-29.66,9.5c-2.17.7-3.94,3.02-3.94,5.2v4.61c0,2.17,1.76,3.37,3.94,2.67l10.4-3.33c-.62,1.57-.73,3.48.07,5.61-3.74-10.06-3.74,38.73,0,26.27-3.74,12.46,12.48,7.26,8.73-2.8,3.74,10.06,3.74-38.73,0-26.27.79-2.64.68-4.47.07-5.65l10.4-3.33c2.17-.7,3.94-3.02,3.94-5.2v-4.61c0-2.17-1.76-3.37-3.94-2.67Z"/>
        <path class="cls-1" d="m52.13,33.15l-36.21,11.6c-.89.29-1.3,1.54-.6,1.88,2.29,1.09,2.8,3.14-.01,13.87-.17.66.28,1.13.91.92l35.05-11.23c.61-.2,1.07-.92.92-1.47-2.43-9.14-1.38-12.07.47-14.02.75-.79.39-1.85-.53-1.55Z"/>
      </g>
    </g>
  </g>
</svg>